<svg xmlns="http://www.w3.org/2000/svg" viewBox="0 0 200 200">
  <defs>
    <linearGradient id="bg1" x1="0%" y1="0%" x2="100%" y2="100%">
      <stop offset="0%" style="stop-color:#667eea;stop-opacity:1" />
      <stop offset="100%" style="stop-color:#764ba2;stop-opacity:1" />
    </linearGradient>
    <linearGradient id="accent1" x1="0%" y1="0%" x2="100%" y2="100%">
      <stop offset="0%" style="stop-color:#f093fb;stop-opacity:1" />
      <stop offset="100%" style="stop-color:#f5576c;stop-opacity:1" />
    </linearGradient>
  </defs>
  
  <rect width="200" height="200" rx="40" fill="url(#bg1)"/>
  
  <g transform="translate(100, 90)">
    <path d="M -35 -10 L -30 40 Q -30 45 -25 45 L 25 45 Q 30 45 30 40 L 35 -10 Z" 
          fill="white" opacity="0.95"/>
    <path d="M -20 -10 Q -20 -30 0 -30 Q 20 -30 20 -10" 
          fill="none" stroke="white" stroke-width="4" stroke-linecap="round" opacity="0.95"/>
    
    <g transform="translate(0, 10)">
      <rect x="-15" y="-8" width="8" height="8" rx="2" fill="url(#accent1)"/>
      <rect x="-3" y="-8" width="8" height="8" rx="2" fill="url(#accent1)"/>
      <rect x="9" y="-8" width="8" height="8" rx="2" fill="url(#accent1)"/>
      <rect x="-15" y="4" width="8" height="8" rx="2" fill="url(#accent1)"/>
      <rect x="-3" y="4" width="8" height="8" rx="2" fill="url(#accent1)"/>
      <rect x="9" y="4" width="8" height="8" rx="2" fill="url(#accent1)"/>
      <rect x="-15" y="16" width="8" height="8" rx="2" fill="url(#accent1)"/>
      <rect x="-3" y="16" width="8" height="8" rx="2" fill="url(#accent1)"/>
      <rect x="9" y="16" width="8" height="8" rx="2" fill="url(#accent1)"/>
    </g>
  </g>
  
  <text x="100" y="160" font-family="Arial, sans-serif" font-size="20" font-weight="bold" 
        text-anchor="middle" fill="white">myapp</text>
  <text x="100" y="178" font-family="Arial, sans-serif" font-size="14" 
        text-anchor="middle" fill="white" opacity="0.9">STORE</text>
</svg>
